<svg version="1.1" id="Layer_1" xmlns="http://www.w3.org/2000/svg" xmlns:xlink="http://www.w3.org/1999/xlink" x="0px" y="0px"
	 width="100%" viewBox="0 0 407 105" enable-background="new 0 0 407 105" xml:space="preserve">
<path fill="#FDFDFD" opacity="1.000000" stroke="none" 
	d="
M89.000000,1.000000 
	C195.269760,1.000000 301.539520,1.000000 407.904633,1.000000 
	C407.904633,35.915264 407.904633,70.830879 407.904633,106.000000 
	C305.645905,106.000000 203.291611,106.000000 100.556992,105.662376 
	C108.647011,101.803825 112.864754,95.122147 113.190041,86.286392 
	C113.759521,70.817894 113.978050,55.331886 114.050369,39.851841 
	C114.080620,33.377632 113.762352,26.845476 112.891777,20.436207 
	C111.485352,10.081812 106.215485,4.999996 95.898788,2.873121 
	C93.569473,2.392910 91.298065,1.631803 89.000000,1.000000 
M330.650574,32.540981 
	C323.909393,29.389084 318.148529,30.617180 314.631989,37.508156 
	C311.124908,44.380589 309.046478,51.982098 306.194092,59.661335 
	C305.174316,60.064171 303.339935,60.788826 300.246094,62.010998 
	C303.119019,63.343292 304.652130,64.054260 306.162872,64.754868 
	C305.737701,69.431625 305.330536,74.075768 304.887115,78.716438 
	C304.671875,80.968887 305.162323,83.165268 307.791077,82.644249 
	C309.104370,82.383957 310.740967,80.302139 311.003479,78.825882 
	C311.866211,73.973816 312.167267,69.021873 312.720276,63.764835 
	C319.661285,63.342014 326.067688,62.951763 332.890930,62.536118 
	C332.890930,69.897079 332.736115,76.871307 333.018890,83.827744 
	C333.076874,85.253578 334.773438,86.612785 335.714691,88.002724 
	C336.848633,86.723389 338.943512,85.459328 338.964111,84.162277 
	C339.125671,74.006966 339.319824,63.816082 338.632446,53.695354 
	C338.129669,46.292843 337.141205,38.676392 330.650574,32.540981 
M285.887665,39.613846 
	C285.959595,36.042881 286.090942,32.424244 281.635132,31.148182 
	C277.477386,29.957472 271.388916,31.669094 270.045380,34.791302 
	C269.460266,36.151077 270.117767,38.045547 270.210907,39.697182 
	C271.950439,39.025406 273.881409,38.626202 275.362305,37.586178 
	C276.352539,36.890751 276.702972,35.284351 277.339722,34.085598 
	C277.940887,34.266998 278.542053,34.448402 279.143219,34.629803 
	C280.317291,51.481823 273.288147,66.833153 268.680511,83.697487 
	C278.961365,84.471458 288.572510,83.211411 298.172028,81.796013 
	C298.144836,80.965630 298.117645,80.135239 298.090454,79.304848 
	C290.918152,79.645004 283.745850,79.985153 277.128723,80.298981 
	C280.127472,66.673935 283.007263,53.589325 285.887665,39.613846 
M158.232147,42.816177 
	C158.446548,38.877605 158.660950,34.939034 158.875290,31.001534 
	C163.864578,30.460266 168.464630,29.961224 174.152267,29.344193 
	C168.334961,25.238503 143.976913,26.670889 139.694885,30.691502 
	C144.311752,30.691502 148.117401,30.691502 152.066086,30.691502 
	C151.524353,48.182693 151.007294,64.876686 150.486755,81.683037 
	C154.860428,82.719185 157.131958,82.433540 157.186127,77.640617 
	C157.313797,66.346054 157.837601,55.055965 158.232147,42.816177 
M367.983673,41.428688 
	C370.550690,41.790474 373.117676,42.152264 374.539795,42.352695 
	C375.359436,53.654469 376.024475,64.571602 376.997253,75.461250 
	C377.446503,80.490250 380.409943,83.102348 385.697693,83.057350 
	C392.172272,83.002258 396.653870,80.154045 398.060364,74.836624 
	C393.858673,73.576279 393.858673,73.576294 390.529419,76.937431 
	C386.447113,81.058884 384.468750,80.546417 382.812805,74.934738 
	C382.624329,74.295975 382.309906,73.650391 382.307922,73.007179 
	C382.275909,62.769901 382.285400,52.532490 382.285400,42.514603 
	C385.974792,42.018520 389.231689,41.580589 392.488586,41.142658 
	C392.462341,40.525307 392.436096,39.907955 392.409821,39.290604 
	C389.233093,39.084503 386.056366,38.878407 382.879639,38.672310 
	C383.127747,38.345776 383.375885,38.019241 383.623993,37.692707 
	C382.336273,36.446949 380.651367,33.950878 379.841156,34.208260 
	C377.991547,34.795803 376.570251,36.731602 374.507690,38.526257 
	C372.780243,39.044235 370.233215,39.807964 367.983673,41.428688 
M217.211639,67.383087 
	C213.414291,72.500504 209.616943,77.617920 205.117889,83.680984 
	C207.833862,83.816116 209.895569,84.521088 210.544617,83.853226 
	C214.759369,79.516151 218.666901,74.880493 222.869461,70.122498 
	C225.219803,72.716187 227.669693,75.404007 230.102173,78.107491 
	C234.585724,83.090538 235.208771,83.296570 239.571426,80.805290 
	C235.038788,75.672226 230.562164,70.602592 225.894684,65.316818 
	C227.948608,62.527187 229.985138,59.761177 232.171356,56.791866 
	C226.721436,53.099876 224.788406,57.872509 221.982239,60.852058 
	C219.232971,57.842247 216.628632,55.105526 214.157349,52.253529 
	C211.665894,49.378273 209.407669,46.126240 204.899841,48.453629 
	C204.899841,49.016594 204.759949,49.461643 204.920380,49.647629 
	C208.603470,53.917412 212.405685,58.088387 215.971069,62.453102 
	C216.918030,63.612358 217.156387,65.350456 217.211639,67.383087 
M182.095322,77.439369 
	C190.038864,84.795464 197.843430,83.298080 200.758148,73.678139 
	C197.940811,72.131233 195.596985,72.791115 194.069931,75.470924 
	C191.557480,79.879990 189.077515,78.474251 186.892334,75.462196 
	C183.010986,70.112129 181.209061,64.008011 180.882858,57.859661 
	C185.593018,56.918327 190.105179,56.551579 194.205872,55.056355 
	C198.919922,53.337482 199.168945,49.283432 195.026520,46.408447 
	C190.431656,43.219452 185.327286,43.003899 180.350723,45.281551 
	C175.907135,47.315289 174.542419,51.394154 174.523926,56.017933 
	C174.492828,63.786095 177.114746,70.650864 182.095322,77.439369 
M250.191772,50.832603 
	C250.405518,47.934750 250.619247,45.036896 250.804932,42.519505 
	C254.600342,41.981960 257.781616,41.531395 260.962921,41.080830 
	C260.914124,40.462830 260.865326,39.844830 260.816528,39.226826 
	C257.609436,39.043972 254.402313,38.861118 252.573486,38.756847 
	C250.797180,36.577599 249.190521,33.996212 248.757629,34.179962 
	C246.773651,35.022125 245.118179,36.638176 243.344757,37.976360 
	C243.525040,38.189861 243.705307,38.403362 243.885574,38.616859 
	C241.265579,39.014957 238.645584,39.413055 236.025589,39.811150 
	C236.082489,40.408142 236.139389,41.005135 236.196289,41.602127 
	C238.834641,41.888969 241.472992,42.175816 243.762497,42.424732 
	C243.762497,48.124496 243.562469,53.447392 243.817978,58.748333 
	C244.080917,64.203415 244.436523,69.699730 245.392395,75.063812 
	C246.513718,81.356293 248.669815,82.945244 254.269806,83.014809 
	C260.678619,83.094421 265.071136,80.196625 266.672363,74.691238 
	C263.688751,73.107300 261.571381,74.097961 259.373627,76.471306 
	C258.072235,77.876678 255.469666,79.699806 254.322479,79.226349 
	C252.790741,78.594170 251.347290,75.979355 251.187424,74.103416 
	C250.555115,66.683624 250.438644,59.219875 250.191772,50.832603 
M349.870575,69.610977 
	C349.910278,72.269890 349.949432,74.928818 349.989929,77.587723 
	C350.022369,79.717522 349.524261,82.034515 352.987854,82.060600 
	C356.718018,82.088699 356.270813,79.583931 356.231201,77.276894 
	C356.128418,71.295975 355.930206,65.316376 355.869781,59.335236 
	C355.851501,57.526623 355.626038,55.399063 356.460602,53.988686 
	C357.386780,52.423485 359.416840,51.511501 360.966278,50.315102 
	C361.935608,51.860668 363.032074,53.345749 363.810608,54.982082 
	C364.114563,55.620914 363.496948,56.644768 363.664001,57.414013 
	C363.955505,58.756496 364.529572,60.037628 364.985168,61.344471 
	C366.566528,60.491642 368.970642,60.026497 369.586823,58.718880 
	C372.258514,53.049000 368.618225,47.464329 362.333679,46.985767 
	C359.274658,46.752819 356.328033,47.641678 353.190155,45.509716 
	C350.814392,43.895580 349.135986,46.301670 349.248962,49.231529 
	C349.498505,55.703476 349.666168,62.178577 349.870575,69.610977 
z"/>
<path fill="#027BFF" opacity="1.000000" stroke="none" 
	d="
M88.571533,1.000000 
	C91.298065,1.631803 93.569473,2.392910 95.898788,2.873121 
	C106.215485,4.999996 111.485352,10.081812 112.891777,20.436207 
	C113.762352,26.845476 114.080620,33.377632 114.050369,39.851841 
	C113.978050,55.331886 113.759521,70.817894 113.190041,86.286392 
	C112.864754,95.122147 108.647011,101.803825 100.088333,105.662376 
	C74.312439,106.000000 48.624878,106.000000 22.348166,105.677658 
	C13.989164,101.680634 9.417164,95.252571 9.241987,86.987923 
	C8.781296,65.253143 8.516926,43.479626 9.345141,21.766193 
	C9.782546,10.298709 15.840924,5.153561 27.094391,2.775786 
	C29.098524,2.352328 31.033234,1.600307 33.000000,1.000000 
	C37.356899,1.000000 41.713799,1.000000 46.796394,1.333310 
	C58.645199,1.780005 69.768219,1.911971 80.891602,1.962712 
	C81.592926,1.965911 82.297134,1.335590 83.000000,1.000000 
	C84.714355,1.000000 86.428719,1.000000 88.571533,1.000000 
M76.090652,78.628822 
	C85.175423,70.293434 87.409218,58.800823 81.864944,48.920853 
	C76.659325,39.644382 65.422340,34.710529 55.501617,37.532990 
	C45.839558,40.281864 39.575317,46.531349 38.072052,56.560875 
	C36.559551,66.652031 40.030575,74.985542 48.955849,80.399155 
	C58.003036,85.886703 66.944847,85.204948 76.090652,78.628822 
M83.167946,20.435806 
	C78.585342,24.646275 77.675095,28.985828 80.538902,32.969635 
	C83.285522,36.790428 88.440269,37.834766 92.424728,35.377674 
	C96.021378,33.159733 97.484070,28.483191 95.823517,24.511007 
	C93.896835,19.902229 89.458122,18.254122 83.167946,20.435806 
z"/>
<path fill="#FCFDFF" opacity="1.000000" stroke="none" 
	d="
M32.531342,1.000000 
	C31.033234,1.600307 29.098524,2.352328 27.094391,2.775786 
	C15.840924,5.153561 9.782546,10.298709 9.345141,21.766193 
	C8.516926,43.479626 8.781296,65.253143 9.241987,86.987923 
	C9.417164,95.252571 13.989164,101.680634 21.879509,105.677658 
	C15.019435,106.000000 8.038870,106.000000 1.029153,106.000000 
	C1.029153,71.116631 1.029153,36.233231 1.029153,1.000000 
	C11.351602,1.000000 21.707142,1.000000 32.531342,1.000000 
z"/>
<path fill="#6AB0FF" opacity="1.000000" stroke="none" 
	d="
M82.531342,1.000000 
	C82.297134,1.335590 81.592926,1.965911 80.891602,1.962712 
	C69.768219,1.911971 58.645199,1.780005 47.261047,1.333310 
	C58.687561,1.000000 70.375122,1.000000 82.531342,1.000000 
z"/>
<path fill="#0B0B0B" opacity="1.000000" stroke="none" 
	d="
M330.953705,32.777954 
	C337.141205,38.676392 338.129669,46.292843 338.632446,53.695354 
	C339.319824,63.816082 339.125671,74.006966 338.964111,84.162277 
	C338.943512,85.459328 336.848633,86.723389 335.714691,88.002716 
	C334.773438,86.612785 333.076874,85.253578 333.018890,83.827744 
	C332.736115,76.871307 332.890930,69.897079 332.890930,62.536118 
	C326.067688,62.951763 319.661285,63.342014 312.720276,63.764835 
	C312.167267,69.021873 311.866211,73.973816 311.003479,78.825882 
	C310.740967,80.302139 309.104370,82.383957 307.791077,82.644249 
	C305.162323,83.165268 304.671875,80.968887 304.887115,78.716438 
	C305.330536,74.075768 305.737701,69.431625 306.162872,64.754868 
	C304.652130,64.054260 303.119019,63.343292 300.246094,62.010998 
	C303.339935,60.788826 305.174316,60.064171 306.194092,59.661335 
	C309.046478,51.982098 311.124908,44.380589 314.631989,37.508156 
	C318.148529,30.617180 323.909393,29.389084 330.953705,32.777954 
M329.212524,39.410667 
	C327.910828,37.863071 326.609131,36.315475 325.307404,34.767895 
	C323.755280,36.106415 321.512817,37.143608 320.773682,38.836987 
	C317.968628,45.263470 315.650055,51.902279 312.747742,59.515728 
	C320.382355,59.012531 326.369507,58.617920 332.922699,58.185997 
	C331.664246,51.576672 330.578674,45.875160 329.212524,39.410667 
z"/>
<path fill="#0D0D0D" opacity="1.000000" stroke="none" 
	d="
M285.887390,40.059280 
	C283.007263,53.589325 280.127472,66.673935 277.128723,80.298981 
	C283.745850,79.985153 290.918152,79.645004 298.090454,79.304848 
	C298.117645,80.135239 298.144836,80.965630 298.172028,81.796013 
	C288.572510,83.211411 278.961365,84.471458 268.680511,83.697487 
	C273.288147,66.833153 280.317291,51.481823 279.143219,34.629803 
	C278.542053,34.448402 277.940887,34.266998 277.339722,34.085598 
	C276.702972,35.284351 276.352539,36.890751 275.362305,37.586178 
	C273.881409,38.626202 271.950439,39.025406 270.210907,39.697182 
	C270.117767,38.045547 269.460266,36.151077 270.045380,34.791302 
	C271.388916,31.669094 277.477386,29.957472 281.635132,31.148182 
	C286.090942,32.424244 285.959595,36.042881 285.887390,40.059280 
z"/>
<path fill="#090909" opacity="1.000000" stroke="none" 
	d="
M158.216644,43.290123 
	C157.837601,55.055965 157.313797,66.346054 157.186127,77.640617 
	C157.131958,82.433540 154.860428,82.719185 150.486755,81.683037 
	C151.007294,64.876686 151.524353,48.182693 152.066086,30.691502 
	C148.117401,30.691502 144.311752,30.691502 139.694885,30.691502 
	C143.976913,26.670889 168.334961,25.238503 174.152267,29.344193 
	C168.464630,29.961224 163.864578,30.460266 158.875290,31.001534 
	C158.660950,34.939034 158.446548,38.877605 158.216644,43.290123 
z"/>
<path fill="#0C0C0C" opacity="1.000000" stroke="none" 
	d="
M367.834961,41.000191 
	C370.233215,39.807964 372.780243,39.044235 374.507690,38.526257 
	C376.570251,36.731602 377.991547,34.795803 379.841156,34.208260 
	C380.651367,33.950878 382.336273,36.446949 383.623993,37.692707 
	C383.375885,38.019241 383.127747,38.345776 382.879639,38.672310 
	C386.056366,38.878407 389.233093,39.084503 392.409821,39.290604 
	C392.436096,39.907955 392.462341,40.525307 392.488586,41.142658 
	C389.231689,41.580589 385.974792,42.018520 382.285400,42.514603 
	C382.285400,52.532490 382.275909,62.769901 382.307922,73.007179 
	C382.309906,73.650391 382.624329,74.295975 382.812805,74.934738 
	C384.468750,80.546417 386.447113,81.058884 390.529419,76.937431 
	C393.858673,73.576294 393.858673,73.576279 398.060364,74.836624 
	C396.653870,80.154045 392.172272,83.002258 385.697693,83.057350 
	C380.409943,83.102348 377.446503,80.490250 376.997253,75.461250 
	C376.024475,64.571602 375.359436,53.654469 374.539795,42.352695 
	C373.117676,42.152264 370.550690,41.790474 367.834961,41.000191 
z"/>
<path fill="#0C0C0C" opacity="1.000000" stroke="none" 
	d="
M217.465851,67.102936 
	C217.156387,65.350456 216.918030,63.612358 215.971069,62.453102 
	C212.405685,58.088387 208.603470,53.917412 204.920380,49.647629 
	C204.759949,49.461643 204.899841,49.016594 204.899841,48.453629 
	C209.407669,46.126240 211.665894,49.378273 214.157349,52.253529 
	C216.628632,55.105526 219.232971,57.842247 221.982239,60.852058 
	C224.788406,57.872509 226.721436,53.099876 232.171356,56.791866 
	C229.985138,59.761177 227.948608,62.527187 225.894684,65.316818 
	C230.562164,70.602592 235.038788,75.672226 239.571426,80.805290 
	C235.208771,83.296570 234.585724,83.090538 230.102173,78.107491 
	C227.669693,75.404007 225.219803,72.716187 222.869461,70.122498 
	C218.666901,74.880493 214.759369,79.516151 210.544617,83.853226 
	C209.895569,84.521088 207.833862,83.816116 205.117889,83.680984 
	C209.616943,77.617920 213.414291,72.500504 217.465851,67.102936 
z"/>
<path fill="#0C0C0C" opacity="1.000000" stroke="none" 
	d="
M181.869629,77.151077 
	C177.114746,70.650864 174.492828,63.786095 174.523926,56.017933 
	C174.542419,51.394154 175.907135,47.315289 180.350723,45.281551 
	C185.327286,43.003899 190.431656,43.219452 195.026520,46.408447 
	C199.168945,49.283432 198.919922,53.337482 194.205872,55.056355 
	C190.105179,56.551579 185.593018,56.918327 180.882858,57.859661 
	C181.209061,64.008011 183.010986,70.112129 186.892334,75.462196 
	C189.077515,78.474251 191.557480,79.879990 194.069931,75.470924 
	C195.596985,72.791115 197.940811,72.131233 200.758148,73.678139 
	C197.843430,83.298080 190.038864,84.795464 181.869629,77.151077 
M187.016693,53.939384 
	C188.328568,52.781769 189.640457,51.624157 190.952332,50.466537 
	C189.617325,49.427788 187.703430,47.233173 187.052017,47.559410 
	C184.778030,48.698261 182.940399,50.708435 180.936966,52.387505 
	C181.254654,52.920841 181.572327,53.454174 181.890015,53.987511 
	C183.312729,53.987511 184.735428,53.987511 187.016693,53.939384 
z"/>
<path fill="#090909" opacity="1.000000" stroke="none" 
	d="
M250.161346,51.302513 
	C250.438644,59.219875 250.555115,66.683624 251.187424,74.103416 
	C251.347290,75.979355 252.790741,78.594170 254.322479,79.226349 
	C255.469666,79.699806 258.072235,77.876678 259.373627,76.471306 
	C261.571381,74.097961 263.688751,73.107300 266.672363,74.691238 
	C265.071136,80.196625 260.678619,83.094421 254.269806,83.014809 
	C248.669815,82.945244 246.513718,81.356293 245.392395,75.063812 
	C244.436523,69.699730 244.080917,64.203415 243.817978,58.748333 
	C243.562469,53.447392 243.762497,48.124496 243.762497,42.424732 
	C241.472992,42.175816 238.834641,41.888969 236.196289,41.602127 
	C236.139389,41.005135 236.082489,40.408142 236.025589,39.811150 
	C238.645584,39.413055 241.265579,39.014957 243.885574,38.616859 
	C243.705307,38.403362 243.525040,38.189861 243.344757,37.976360 
	C245.118179,36.638176 246.773651,35.022125 248.757629,34.179962 
	C249.190521,33.996212 250.797180,36.577599 252.573486,38.756847 
	C254.402313,38.861118 257.609436,39.043972 260.816528,39.226826 
	C260.865326,39.844830 260.914124,40.462830 260.962921,41.080830 
	C257.781616,41.531395 254.600342,41.981960 250.804932,42.519505 
	C250.619247,45.036896 250.405518,47.934750 250.161346,51.302513 
z"/>
<path fill="#0B0B0B" opacity="1.000000" stroke="none" 
	d="
M349.868896,69.131683 
	C349.666168,62.178577 349.498505,55.703476 349.248962,49.231529 
	C349.135986,46.301670 350.814392,43.895580 353.190155,45.509716 
	C356.328033,47.641678 359.274658,46.752819 362.333679,46.985767 
	C368.618225,47.464329 372.258514,53.049000 369.586823,58.718880 
	C368.970642,60.026497 366.566528,60.491642 364.985168,61.344475 
	C364.529572,60.037628 363.955505,58.756496 363.664001,57.414013 
	C363.496948,56.644768 364.114563,55.620914 363.810608,54.982082 
	C363.032074,53.345749 361.935608,51.860668 360.966278,50.315102 
	C359.416840,51.511501 357.386780,52.423485 356.460602,53.988686 
	C355.626038,55.399063 355.851501,57.526623 355.869781,59.335236 
	C355.930206,65.316376 356.128418,71.295975 356.231201,77.276894 
	C356.270813,79.583931 356.718018,82.088699 352.987854,82.060600 
	C349.524261,82.034515 350.022369,79.717522 349.989929,77.587723 
	C349.949432,74.928818 349.910278,72.269890 349.868896,69.131683 
z"/>
<path fill="#F8FBFF" opacity="1.000000" stroke="none" 
	d="
M75.801331,78.848465 
	C66.944847,85.204948 58.003036,85.886703 48.955849,80.399155 
	C40.030575,74.985542 36.559551,66.652031 38.072052,56.560875 
	C39.575317,46.531349 45.839558,40.281864 55.501617,37.532990 
	C65.422340,34.710529 76.659325,39.644382 81.864944,48.920853 
	C87.409218,58.800823 85.175423,70.293434 75.801331,78.848465 
M52.226341,52.762264 
	C48.647617,58.371567 48.540150,63.277317 51.902596,67.540718 
	C54.960663,71.418182 60.313049,73.069473 64.924232,71.432854 
	C69.581940,69.779724 72.397606,66.464600 72.906944,61.527641 
	C73.418236,56.571770 71.347565,52.586338 67.035957,50.260918 
	C61.977352,47.532623 57.062565,48.294003 52.226341,52.762264 
z"/>
<path fill="#F5FAFF" opacity="1.000000" stroke="none" 
	d="
M83.509506,20.250706 
	C89.458122,18.254122 93.896835,19.902229 95.823517,24.511007 
	C97.484070,28.483191 96.021378,33.159733 92.424728,35.377674 
	C88.440269,37.834766 83.285522,36.790428 80.538902,32.969635 
	C77.675095,28.985828 78.585342,24.646275 83.509506,20.250706 
z"/>
<path fill="#F8F8F8" opacity="1.000000" stroke="none" 
	d="
M329.352814,39.792160 
	C330.578674,45.875160 331.664246,51.576672 332.922699,58.185997 
	C326.369507,58.617920 320.382355,59.012531 312.747742,59.515728 
	C315.650055,51.902279 317.968628,45.263470 320.773682,38.836987 
	C321.512817,37.143608 323.755280,36.106415 325.307404,34.767887 
	C326.609131,36.315475 327.910828,37.863071 329.352814,39.792160 
z"/>
<path fill="#E9E9E9" opacity="1.000000" stroke="none" 
	d="
M186.587418,53.963448 
	C184.735428,53.987511 183.312729,53.987511 181.890015,53.987511 
	C181.572327,53.454174 181.254654,52.920841 180.936966,52.387505 
	C182.940399,50.708435 184.778030,48.698261 187.052017,47.559410 
	C187.703430,47.233173 189.617325,49.427788 190.952332,50.466537 
	C189.640457,51.624157 188.328568,52.781769 186.587418,53.963448 
z"/>
<path fill="#087EFF" opacity="1.000000" stroke="none" 
	d="
M52.481865,52.481155 
	C57.062565,48.294003 61.977352,47.532623 67.035957,50.260918 
	C71.347565,52.586338 73.418236,56.571770 72.906944,61.527641 
	C72.397606,66.464600 69.581940,69.779724 64.924232,71.432854 
	C60.313049,73.069473 54.960663,71.418182 51.902596,67.540718 
	C48.540150,63.277317 48.647617,58.371567 52.481865,52.481155 
z"/>
</svg>